<?xml version="1.0" encoding="UTF-8" standalone="no"?>
<svg
   width="900"
   height="600"
   viewBox="0 0 900 600"
   fill="none"
   version="1.1"
   id="svg21"
   sodipodi:docname="organize.svg"
   inkscape:version="1.3 (0e150ed, 2023-07-21)"
   xmlns:inkscape="http://www.inkscape.org/namespaces/inkscape"
   xmlns:sodipodi="http://sodipodi.sourceforge.net/DTD/sodipodi-0.dtd"
   xmlns="http://www.w3.org/2000/svg"
   xmlns:svg="http://www.w3.org/2000/svg">
  <sodipodi:namedview
     id="namedview21"
     pagecolor="#ffffff"
     bordercolor="#000000"
     borderopacity="0.25"
     inkscape:showpageshadow="2"
     inkscape:pageopacity="0.0"
     inkscape:pagecheckerboard="0"
     inkscape:deskcolor="#d1d1d1"
     inkscape:zoom="1.2614613"
     inkscape:cx="401.91481"
     inkscape:cy="311.14707"
     inkscape:window-width="1920"
     inkscape:window-height="1080"
     inkscape:window-x="0"
     inkscape:window-y="0"
     inkscape:window-maximized="0"
     inkscape:current-layer="svg21" />
  <path
     fill="transparent"
     d="M0 0h900v600H0z"
     id="path1" />
  <path
     clip-rule="evenodd"
     d="M588.179 387.428h42.605c11.759 0 21.303 9.543 21.303 21.302v42.605c0 11.759-9.544 21.302-21.303 21.302h-42.605c-11.759 0-21.302-9.543-21.302-21.302V408.73c0-11.759 9.543-21.302 21.302-21.302zM289.945 89.194h42.605c11.759 0 21.302 9.543 21.302 21.302v42.605c0 11.759-9.543 21.302-21.302 21.302h-42.605c-11.759 0-21.302-9.543-21.302-21.302v-42.605c0-11.759 9.543-21.302 21.302-21.302z"
     stroke="#E1E4E5"
     stroke-width="8"
     stroke-linecap="round"
     stroke-linejoin="round"
     id="path2" />
  <path
     d="M439.062 131.798h170.42c23.539 0 42.605 19.066 42.605 42.605v63.908c0 23.539-19.066 42.604-42.605 42.604h-42.605m-85.21 149.118H311.248c-23.54 0-42.605-19.066-42.605-42.605V323.52c0-23.539 19.065-42.604 42.605-42.604h42.604"
     stroke="#E1E4E5"
     stroke-width="8"
     stroke-linecap="round"
     stroke-linejoin="round"
     id="path4" />
  <g
     id="circle4">
    <path
       style="color:#000000;fill:#666af6;stroke-linecap:round;stroke-linejoin:round;-inkscape-stroke:none"
       d="m 467.38281,196.35352 c -46.67483,0 -84.63867,37.96384 -84.63867,84.63867 0,46.67483 37.96384,84.64062 84.63867,84.64062 46.67483,0 84.63867,-37.96579 84.63867,-84.64062 0,-46.67483 -37.96384,-84.63867 -84.63867,-84.63867 z m 0,11.8125 c 40.29116,0 72.82813,32.53501 72.82813,72.82617 0,40.29115 -32.53697,72.82812 -72.82813,72.82812 -40.29115,0 -72.82617,-32.53697 -72.82617,-72.82812 0,-40.29116 32.53502,-72.82617 72.82617,-72.82617 z"
       id="path25"
       inkscape:label="path25" />
  </g>
  <path
     id="path5"
     style="color:#000000;fill:#666af6;stroke-linecap:round;stroke-linejoin:round;-inkscape-stroke:none;stroke:none;stroke-opacity:1;fill-opacity:1"
     inkscape:label="path5"
     inkscape:transform-center-y="-0.6000456"
     d="m 477.01367,247.29102 a 4.7249999,4.7249999 0 0 0 -5.8418,3.24414 l -16.6621,58.32226 a 4.7249999,4.7249999 0 0 0 3.24414,5.83985 4.7249999,4.7249999 0 0 0 5.84179,-3.24415 l 16.66211,-58.32031 a 4.7249999,4.7249999 0 0 0 -3.24414,-5.84179 z m -36.71875,3.98437 a 4.7249999,4.7249999 0 0 0 -3.3418,1.38477 l -16.65429,16.66601 a 4.7254724,4.7254724 0 0 0 0,6.68164 l 16.65625,16.65625 a 4.7249999,4.7249999 0 0 0 6.68164,0 4.7249999,4.7249999 0 0 0 0,-6.68164 l -13.31641,-13.3164 13.31836,-13.32422 a 4.7249999,4.7249999 0 0 0 -0.002,-6.6836 4.7249999,4.7249999 0 0 0 -3.3418,-1.38281 z m 54.32227,15.46875 a 4.7249999,4.7249999 0 0 0 -3.38672,1.26758 A 4.7249999,4.7249999 0 0 0 491,274.69141 l 13.55078,14.51757 -13.4375,13.4375 a 4.7249999,4.7249999 0 0 0 0,6.68164 4.7249999,4.7249999 0 0 0 6.68359,0 l 16.66407,-16.66406 a 4.7254724,4.7254724 0 0 0 0.11328,-6.56445 l -16.66406,-17.85742 a 4.7249999,4.7249999 0 0 0 -3.29297,-1.49805 z m 51.49881,14.24887 a 78.733002,78.733002 0 0 1 -78.733,78.733 78.733002,78.733002 0 0 1 -78.73301,-78.733 78.733002,78.733002 0 0 1 78.73301,-78.733 78.733002,78.733002 0 0 1 78.733,78.733 z" />
  <rect
     x="692.86"
     y="131.702"
     width="158.467"
     height="7.35"
     rx="3.675"
     fill="#E1E4E5"
     id="rect5" />
  <rect
     x="669.726"
     y="299.423"
     width="158.467"
     height="7.35"
     rx="3.675"
     fill="#E1E4E5"
     id="rect6" />
  <rect
     x="97.163"
     y="206.887"
     width="158.467"
     height="7.35"
     rx="3.675"
     fill="#E1E4E5"
     id="rect7" />
  <rect
     x="89.066"
     y="445.166"
     width="158.467"
     height="7.35"
     rx="3.675"
     fill="#E1E4E5"
     id="rect8" />
  <rect
     x="692.86"
     y="169.873"
     width="158.467"
     height="7.35"
     rx="3.675"
     fill="#E1E4E5"
     id="rect9" />
  <rect
     x="669.726"
     y="337.593"
     width="158.467"
     height="7.35"
     rx="3.675"
     fill="#E1E4E5"
     id="rect10" />
  <rect
     x="97.163"
     y="245.058"
     width="158.467"
     height="7.35"
     rx="3.675"
     fill="#E1E4E5"
     id="rect11" />
  <rect
     x="89.066"
     y="483.337"
     width="158.467"
     height="7.35"
     rx="3.675"
     fill="#E1E4E5"
     id="rect12" />
  <path
     d="M764.964 231.931c15.739-3.729 32.386 9.619 32.386 9.619s-8.884 19.386-24.628 23.103c-15.739 3.729-32.381-9.607-32.381-9.607s8.884-19.386 24.623-23.115z"
     fill="url(#a)"
     id="path12" />
  <circle
     cx="207.865"
     cy="321.348"
     r="15.854"
     fill="#666AF6"
     id="circle12" />
  <circle
     r="11.903"
     transform="matrix(1 0 0 -1 840.096 236.43)"
     fill="#666AF6"
     id="circle13" />
  <circle
     r="11.903"
     transform="matrix(1 0 0 -1 584.467 186.693)"
     fill="#666AF6"
     id="circle14" />
  <circle
     r="22.725"
     transform="matrix(1 0 0 -1 326.936 505.194)"
     fill="#666AF6"
     id="circle15" />
  <circle
     r="12.683"
     transform="matrix(1 0 0 -1 609.537 430.377)"
     fill="#E1E4E5"
     id="circle16" />
  <circle
     r="10.821"
     transform="matrix(1 0 0 -1 439.955 494.447)"
     fill="#E1E4E5"
     id="circle17" />
  <circle
     r="10.575"
     transform="scale(-1 1) rotate(-75 -106.451 688.544)"
     fill="#E1E4E5"
     id="circle18" />
  <circle
     r="14.068"
     transform="matrix(1 0 0 -1 729.916 108.021)"
     fill="#E1E4E5"
     id="circle19" />
  <ellipse
     rx="10.821"
     ry="8.657"
     transform="matrix(1 0 0 -1 59.403 293.31)"
     fill="#E1E4E5"
     id="ellipse19" />
  <circle
     r="15.545"
     transform="scale(-1 1) rotate(-75 -45.443 183.402)"
     fill="#E1E4E5"
     id="circle20" />
  <path
     d="M129.51 372.474h-.283c-1.677-23.752-19.341-24.117-19.341-24.117s19.479-.38 19.479-27.825c0 27.445 19.478 27.825 19.478 27.825s-17.657.365-19.333 24.117zm14.285-231.006h-.205c-1.217-17.696-14.04-17.968-14.04-17.968s14.14-.284 14.14-20.73c0 20.446 14.139 20.73 14.139 20.73s-12.817.272-14.034 17.968z"
     fill="#E1E4E5"
     id="path20" />
  <defs
     id="defs21">
    <linearGradient
       id="a"
       x1="824.233"
       y1="222.66"
       x2="686.453"
       y2="287.752"
       gradientUnits="userSpaceOnUse">
      <stop
         stop-color="#fff"
         id="stop20" />
      <stop
         offset="1"
         stop-color="#EEE"
         id="stop21" />
    </linearGradient>
  </defs>
</svg>
